<svg xmlns="http://www.w3.org/2000/svg" width="24" height="24" viewBox="0 0 24 24"><path fill="#FFFFFF" fill-rule="evenodd" d="M22.407 0h-21.1C.586 0 0 .586 0 1.306v21.1c0 .72.586 1.306 1.306 1.306h21.1c.72 0 1.306-.586 1.306-1.305V1.297C23.702.587 23.117 0 22.407 0zm-9.094 18.046c0 .41-.338.737-.738.737H3.9c-.41 0-.738-.337-.738-.737v-1.634c0-.408.337-.737.737-.737h8.675c.41 0 .738.337.738.737v1.634zm7.246-5.79c0 .408-.338.737-.738.737H3.89c-.41 0-.737-.338-.737-.737v-1.634c0-.41.337-.737.737-.737h15.923c.41 0 .738.337.738.737v1.634h.01zm0-5.8c0 .41-.338.738-.738.738H3.89c-.41 0-.737-.338-.737-.738V4.822c0-.408.337-.737.737-.737h15.923c.41 0 .738.338.738.737v1.634h.01z"/></svg>